<?xml version="1.0" encoding="iso-8859-1"?>
<!-- Generator: Adobe Illustrator 17.1.0, SVG Export Plug-In . SVG Version: 6.00 Build 0)  -->
<!DOCTYPE svg PUBLIC "-//W3C//DTD SVG 1.1//EN" "http://www.w3.org/Graphics/SVG/1.1/DTD/svg11.dtd">
<svg xmlns="http://www.w3.org/2000/svg" xmlns:xlink="http://www.w3.org/1999/xlink" version="1.1" id="Capa_1" x="0px" y="0px" viewBox="0 0 511 511" style="enable-background:new 0 0 511 511;" xml:space="preserve">
<g>
	<path d="M255.5,0C149.74,0,63.698,86.042,63.698,191.802c0,39.573,9.972,78.887,29.638,116.852   c15.631,30.175,37.387,59.553,64.663,87.319c46.291,47.122,91.909,72.988,93.829,74.066c1.141,0.641,2.407,0.961,3.673,0.961   c1.29,0,2.579-0.332,3.734-0.996c1.918-1.101,47.512-27.52,93.783-74.911c27.267-27.927,49.016-57.333,64.643-87.402   c19.669-37.847,29.642-76.838,29.642-115.889C447.302,86.042,361.26,0,255.5,0z M404.451,300.58   c-14.901,28.727-35.726,56.907-61.894,83.755c-37.436,38.409-75.346,63.158-87.096,70.428   c-11.77-7.145-49.645-31.447-87.042-69.587c-26.157-26.676-46.973-54.81-61.869-83.622   c-18.481-35.748-27.853-72.673-27.853-109.751C78.698,94.313,158.01,15,255.5,15s176.803,79.313,176.803,176.802   C432.302,228.354,422.932,264.952,404.451,300.58z" fill="#FFFFFF"/>
	<path d="M382.081,123.847c-0.994-1.856-2.046-3.721-3.127-5.542c-2.115-3.561-6.716-4.732-10.278-2.619   c-3.562,2.115-4.734,6.717-2.619,10.278c0.978,1.646,1.929,3.332,2.854,5.062c0.001,0.003,0.003,0.007,0.005,0.01   C378.784,149.505,384,170.411,384,191.5c0,70.855-57.645,128.5-128.5,128.5S127,262.355,127,191.5S184.645,63,255.5,63   c15.623,0,30.885,2.77,45.363,8.234c3.874,1.463,8.203-0.493,9.665-4.369c1.462-3.875-0.494-8.203-4.369-9.665   c-16.176-6.104-33.22-9.2-50.659-9.2C176.374,48,112,112.374,112,191.5S176.374,335,255.5,335S399,270.626,399,191.5   c0-23.566-5.838-46.937-16.912-67.642C382.086,123.854,382.084,123.851,382.081,123.847z" fill="#FFFFFF"/>
	<path d="M331.058,87.55c5.364,3.906,10.47,8.265,15.176,12.958c1.464,1.459,3.379,2.189,5.295,2.189   c1.923,0,3.846-0.735,5.311-2.205c2.925-2.933,2.917-7.682-0.016-10.606c-5.252-5.237-10.951-10.103-16.937-14.462   c-3.35-2.438-8.04-1.699-10.478,1.648C326.972,80.42,327.71,85.111,331.058,87.55z" fill="#FFFFFF"/>
	<path d="M303.5,496h-96c-4.142,0-7.5,3.358-7.5,7.5s3.358,7.5,7.5,7.5h96c4.142,0,7.5-3.358,7.5-7.5S307.642,496,303.5,496z" fill="#FFFFFF"/>
	<path d="M272,143.5c0,5.972,1.671,11.561,4.569,16.325L255.5,180.894l-21.069-21.069c2.898-4.764,4.569-10.353,4.569-16.325   c0-17.369-14.131-31.5-31.5-31.5S176,126.131,176,143.5s14.131,31.5,31.5,31.5c5.972,0,11.561-1.671,16.325-4.569l21.069,21.069   l-21.069,21.069C219.061,209.671,213.472,208,207.5,208c-17.369,0-31.5,14.131-31.5,31.5s14.131,31.5,31.5,31.5   s31.5-14.131,31.5-31.5c0-5.972-1.671-11.561-4.569-16.325l21.069-21.069l21.069,21.069C273.67,227.939,272,233.528,272,239.5   c0,17.369,14.131,31.5,31.5,31.5s31.5-14.131,31.5-31.5S320.869,208,303.5,208c-5.972,0-11.561,1.671-16.325,4.569L266.106,191.5   l21.069-21.069c4.764,2.898,10.353,4.569,16.325,4.569c17.369,0,31.5-14.131,31.5-31.5S320.869,112,303.5,112   S272,126.131,272,143.5z M207.5,160c-9.098,0-16.5-7.402-16.5-16.5s7.402-16.5,16.5-16.5s16.5,7.402,16.5,16.5   c0,1.774-0.289,3.481-0.81,5.084l-10.387-10.387c-2.929-2.929-7.678-2.929-10.606,0c-2.929,2.929-2.929,7.678,0,10.606   l10.387,10.387C210.98,159.711,209.274,160,207.5,160z M224,239.5c0,9.098-7.402,16.5-16.5,16.5s-16.5-7.402-16.5-16.5   s7.402-16.5,16.5-16.5c1.774,0,3.481,0.289,5.084,0.81l-10.387,10.387c-2.929,2.929-2.929,7.678,0,10.606   c1.464,1.464,3.384,2.197,5.303,2.197s3.839-0.732,5.303-2.197l10.387-10.387C223.711,236.019,224,237.726,224,239.5z M303.5,223   c9.098,0,16.5,7.402,16.5,16.5s-7.402,16.5-16.5,16.5s-16.5-7.402-16.5-16.5c0-1.774,0.289-3.481,0.81-5.084l10.387,10.387   c1.464,1.464,3.384,2.197,5.303,2.197s3.839-0.732,5.303-2.197c2.929-2.929,2.929-7.678,0-10.606l-10.387-10.387   C300.019,223.289,301.725,223,303.5,223z M320,143.5c0,9.098-7.402,16.5-16.5,16.5c-1.774,0-3.481-0.289-5.084-0.81l10.387-10.387   c2.929-2.929,2.929-7.678,0-10.606c-2.929-2.929-7.678-2.929-10.606,0l-10.387,10.387c-0.521-1.603-0.81-3.309-0.81-5.084   c0-9.098,7.402-16.5,16.5-16.5S320,134.402,320,143.5z" fill="#FFFFFF"/>
</g>
<g>
</g>
<g>
</g>
<g>
</g>
<g>
</g>
<g>
</g>
<g>
</g>
<g>
</g>
<g>
</g>
<g>
</g>
<g>
</g>
<g>
</g>
<g>
</g>
<g>
</g>
<g>
</g>
<g>
</g>
</svg>
