<?xml version="1.0" encoding="iso-8859-1"?>
<!-- Generator: Adobe Illustrator 19.0.0, SVG Export Plug-In . SVG Version: 6.00 Build 0)  -->
<svg xmlns="http://www.w3.org/2000/svg" xmlns:xlink="http://www.w3.org/1999/xlink" version="1.1" id="Capa_1" x="0px" y="0px" viewBox="0 0 512.001 512.001" style="enable-background:new 0 0 512.001 512.001;" xml:space="preserve">
<g>
	<g>
		<path d="M497,32.133h-49.267V15c0-8.284-6.716-15-15-15s-15,6.716-15,15v17.133h-49.267c-8.284,0-15,6.716-15,15    c0,8.284,6.716,15,15,15h49.267v114.599h-57.3H151.568h-57.3V62.133h49.267c8.284,0,15-6.716,15-15c0-8.284-6.716-15-15-15H94.268    V15c0-8.284-6.716-15-15-15s-15,6.716-15,15v17.133H15.002c-8.284,0-15,6.716-15,15c0,8.284,6.716,15,15,15h49.267v129.599    c0,8.284,6.716,15,15,15h57.3v82.466h-57.3c-6.883,0-12.883,4.685-14.552,11.362l-48.2,192.8    c-2.009,8.037,2.877,16.181,10.914,18.19c1.222,0.305,2.445,0.451,3.649,0.451c6.721,0,12.837-4.55,14.541-11.365L90.98,319.197    h45.588v33.2c0,8.284,6.716,15,15,15h208.866c8.284,0,15-6.716,15-15v-33.2h45.588l45.359,181.438    c1.704,6.816,7.819,11.366,14.541,11.365c1.204,0,2.428-0.146,3.649-0.451c8.037-2.009,12.923-10.153,10.914-18.19l-48.2-192.8    c-1.669-6.677-7.669-11.362-14.552-11.362h-57.3v-82.467h57.3c8.284,0,15-6.716,15-15V62.132h49.267c8.284,0,15-6.716,15-15    S505.284,32.133,497,32.133z M345.434,337.397H166.568V206.731h178.866V337.397z" fill="#313757"/>
	</g>
</g>
<g>
	<g>
		<path d="M231.901,227.065c-24.813,0-45,20.187-45,45c0,24.813,20.187,44.999,45,44.999s45-20.186,45-44.999    C276.901,247.252,256.714,227.065,231.901,227.065z M231.901,287.063c-8.271,0-15-6.728-15-14.999c0-8.271,6.729-15,15-15    s15,6.729,15,15C246.901,280.335,240.172,287.063,231.901,287.063z" fill="#313757"/>
	</g>
</g>
<g>
</g>
<g>
</g>
<g>
</g>
<g>
</g>
<g>
</g>
<g>
</g>
<g>
</g>
<g>
</g>
<g>
</g>
<g>
</g>
<g>
</g>
<g>
</g>
<g>
</g>
<g>
</g>
<g>
</g>
</svg>
