<?xml version="1.0" encoding="iso-8859-1"?>
<!-- Generator: Adobe Illustrator 19.0.0, SVG Export Plug-In . SVG Version: 6.00 Build 0)  -->
<svg xmlns="http://www.w3.org/2000/svg" xmlns:xlink="http://www.w3.org/1999/xlink" version="1.1" id="Layer_1" x="0px" y="0px" viewBox="0 0 511.999 511.999" style="enable-background:new 0 0 511.999 511.999;" xml:space="preserve">
<g>
	<g>
		<path d="M188.218,424.621l-26.115-20.251l29.312-93.023l-26.678-20.982l-48.647,78.322L86.524,345.76l-4.3-23.941L54.307,299.86    L38.82,341.387L0,367.013l28.015,22.036l24.287-1.463l30.086,23.929l-64.562,65.639l26.678,20.981l83.452-50.379l25.92,20.615    c5.086,3.999,11.144,5.939,17.162,5.938c8.242,0,16.409-3.639,21.889-10.605C202.405,451.651,200.312,434.133,188.218,424.621z     M168.681,312.764l5.117,4.024l-24.475,77.671l-21.181-16.426L168.681,312.764z M45.64,479.731l-5.117-4.024l53.802-54.7    l20.967,16.675L45.64,479.731z M181.004,454.326c-4.311,5.478-12.275,6.429-17.718,2.147L57.195,372.094l-24.333,1.465    l-6.957-5.471l25.4-16.767l9.956-26.694l7.055,5.548l4.31,24l106.259,82.399C184.362,440.884,185.312,448.848,181.004,454.326z" fill="#313757"/>
	</g>
</g>
<g>
	<g>
		<path d="M450.033,89.276C405.5,37.624,343.516,6.404,275.502,1.371C207.486-3.667,141.585,18.09,89.931,62.623    C38.279,107.157,7.06,169.141,2.028,237.155c-1.923,25.984,0.086,51.916,5.97,77.077l14.769-3.454    c-5.534-23.661-7.422-48.055-5.613-72.503c4.735-63.974,34.099-122.274,82.683-164.162    c48.583-41.888,110.575-62.357,174.545-57.615c63.974,4.735,122.275,34.099,164.162,82.683    c41.888,48.585,62.35,110.573,57.615,174.545C491.424,337.7,462.06,396,413.476,437.888    c-48.585,41.888-110.581,62.35-174.545,57.614c-5.352-0.396-10.755-0.978-16.059-1.73l-2.129,15.019    c5.638,0.8,11.38,1.418,17.069,1.838c6.439,0.477,12.852,0.713,19.242,0.713c61.116,0,119.565-21.648,166.328-61.966    c51.652-44.534,82.871-106.517,87.905-174.53C516.321,206.832,494.567,140.928,450.033,89.276z" fill="#313757"/>
	</g>
</g>
<g>
	<g>
		<path d="M256.528,51.688c-112.914,0-204.775,91.862-204.775,204.775h15.169c0-104.55,85.057-189.607,189.607-189.607    s189.607,85.057,189.607,189.607S361.078,446.07,256.528,446.07v15.169c112.914,0,204.775-91.862,204.775-204.775    S369.442,51.688,256.528,51.688z" fill="#313757"/>
	</g>
</g>
<g>
	<g>
		<rect x="248.946" y="91.628" width="15.169" height="15.169" fill="#313757"/>
	</g>
</g>
<g>
	<g>
		<rect x="248.946" y="409.156" width="15.169" height="15.169" fill="#313757"/>
	</g>
</g>
<g>
	<g>
		<rect x="90.182" y="250.392" width="15.169" height="15.169" fill="#313757"/>
	</g>
</g>
<g>
	<g>
		<rect x="407.71" y="250.392" width="15.169" height="15.169" fill="#313757"/>
	</g>
</g>
<g>
	<g>
		<path d="M283.783,248.373c-2.625-9.245-9.92-16.54-19.165-19.165V129.047H249.45v100.161    c-11.658,3.311-20.225,14.045-20.225,26.749c0,15.333,12.476,27.809,27.809,27.809c12.704,0,23.438-8.567,26.749-20.225h63.756    v-15.169H283.783z M257.034,268.598c-6.97,0-12.641-5.67-12.641-12.64c0-6.971,5.67-12.641,12.641-12.641s12.64,5.67,12.64,12.64    C269.674,262.928,264.004,268.598,257.034,268.598z" fill="#313757"/>
	</g>
</g>
<g>
</g>
<g>
</g>
<g>
</g>
<g>
</g>
<g>
</g>
<g>
</g>
<g>
</g>
<g>
</g>
<g>
</g>
<g>
</g>
<g>
</g>
<g>
</g>
<g>
</g>
<g>
</g>
<g>
</g>
</svg>
