<?xml version="1.0" encoding="iso-8859-1"?>
<!-- Generator: Adobe Illustrator 19.0.0, SVG Export Plug-In . SVG Version: 6.00 Build 0)  -->
<svg version="1.1" id="Layer_1" xmlns="http://www.w3.org/2000/svg" xmlns:xlink="http://www.w3.org/1999/xlink" x="0px" y="0px"
	 viewBox="0 0 512 512" style="enable-background:new 0 0 512 512;" xml:space="preserve">
<g>
	<path style="fill:#E0E0E0;" d="M340.534,320H171.471c-5.163,0-9.335-4.181-9.335-9.336V209.869c0-5.154,4.173-9.335,9.335-9.335
		h169.062c5.154,0,9.335,4.181,9.335,9.335v100.796C349.869,315.819,345.688,320,340.534,320"/>
	<path style="fill:#878787;" d="M162.133,294.4l-68.267-59.733v-51.2l68.267,51.2V294.4z"/>
	<g>
		<path style="fill:#E0E0E0;" d="M76.8,302.933L76.8,302.933c-9.387,0-17.067-7.68-17.067-17.067V149.333
			c0-9.387,7.68-17.067,17.067-17.067s17.067,7.68,17.067,17.067v136.533C93.867,295.253,86.187,302.933,76.8,302.933"/>
		<path style="fill:#E0E0E0;" d="M82.934,89.6H70.671c-6.042,0-10.94-4.898-10.94-10.931V32.265c0-6.033,4.898-10.931,10.94-10.931
			h12.262c6.042,0,10.931,4.898,10.931,10.931v46.404C93.865,84.702,88.975,89.6,82.934,89.6"/>
	</g>
	<g>
		<path style="fill:#878787;" d="M145.067,64H8.533C3.814,64,0,60.186,0,55.467s3.814-8.533,8.533-8.533h136.533
			c4.719,0,8.533,3.814,8.533,8.533S149.786,64,145.067,64"/>
		<path style="fill:#878787;" d="M68.267,132.267h17.067V89.6H68.267V132.267z"/>
	</g>
	<path style="fill:#E0E0E0;" d="M108.277,490.667h-11.75c-6.187,0-11.196-5.009-11.196-11.187V448h34.133v31.479
		C119.464,485.658,114.455,490.667,108.277,490.667"/>
	<g>
		<path style="fill:#878787;" d="M162.133,311.467V294.4c-28.297,0-76.8,82.85-76.8,153.6h34.133c0-70.75,57.037-128,85.333-128
			h-34.133C165.513,320,162.133,316.621,162.133,311.467"/>
		<path style="fill:#878787;" d="M230.4,354.133h51.2V320h-51.2V354.133z"/>
		<path style="fill:#878787;" d="M273.067,209.067c-4.719,0-8.533-3.814-8.533-8.533v-51.2c0-4.719,3.814-8.533,8.533-8.533
			s8.533,3.814,8.533,8.533v51.2C281.6,205.252,277.786,209.067,273.067,209.067"/>
		<path style="fill:#878787;" d="M238.933,209.067c-4.719,0-8.533-3.814-8.533-8.533V166.4c0-4.719,3.814-8.533,8.533-8.533
			c4.719,0,8.533,3.814,8.533,8.533v34.133C247.467,205.252,243.652,209.067,238.933,209.067"/>
		<path style="fill:#878787;" d="M290.133,251.733h-68.267c-4.719,0-8.533-3.814-8.533-8.533s3.814-8.533,8.533-8.533h68.267
			c4.719,0,8.533,3.814,8.533,8.533S294.852,251.733,290.133,251.733"/>
		<path style="fill:#878787;" d="M315.733,285.867H196.267c-4.719,0-8.533-3.814-8.533-8.533s3.814-8.533,8.533-8.533h119.467
			c4.719,0,8.533,3.814,8.533,8.533S320.452,285.867,315.733,285.867"/>
		<path style="fill:#878787;" d="M349.867,294.4l68.267-59.733v-51.2l-68.267,51.2V294.4z"/>
	</g>
	<g>
		<path style="fill:#E0E0E0;" d="M435.2,302.933L435.2,302.933c9.387,0,17.067-7.68,17.067-17.067V149.333
			c0-9.387-7.68-17.067-17.067-17.067s-17.067,7.68-17.067,17.067v136.533C418.133,295.253,425.813,302.933,435.2,302.933"/>
		<path style="fill:#E0E0E0;" d="M429.067,89.6h12.262c6.042,0,10.94-4.898,10.94-10.931V32.265c0-6.033-4.898-10.931-10.94-10.931
			h-12.262c-6.042,0-10.931,4.898-10.931,10.931v46.404C418.136,84.702,423.026,89.6,429.067,89.6"/>
	</g>
	<g>
		<path style="fill:#878787;" d="M503.467,64H366.933c-4.719,0-8.533-3.814-8.533-8.533s3.814-8.533,8.533-8.533h136.533
			c4.719,0,8.533,3.814,8.533,8.533S508.186,64,503.467,64"/>
		<path style="fill:#878787;" d="M426.667,132.267h17.067V89.6h-17.067V132.267z"/>
	</g>
	<path style="fill:#E0E0E0;" d="M403.723,490.667h11.75c6.187,0,11.196-5.009,11.196-11.187V448h-34.133v31.479
		C392.536,485.658,397.545,490.667,403.723,490.667"/>
	<path style="fill:#878787;" d="M349.867,311.467V294.4c28.297,0,76.8,82.85,76.8,153.6h-34.133c0-70.75-57.037-128-85.333-128
		h34.133C346.487,320,349.867,316.621,349.867,311.467"/>
	<path style="fill:#B88353;" d="M309.206,473.6H202.796c-3.61,0-6.528-2.918-6.528-6.528V360.661c0-3.61,2.918-6.528,6.528-6.528
		h106.411c3.601,0,6.528,2.918,6.528,6.528v106.411C315.734,470.682,312.807,473.6,309.206,473.6"/>
	<path style="fill:#E1CBA2;" d="M281.6,422.4L256,405.333L230.4,422.4v-68.267h51.2V422.4z"/>
</g>
<g>
</g>
<g>
</g>
<g>
</g>
<g>
</g>
<g>
</g>
<g>
</g>
<g>
</g>
<g>
</g>
<g>
</g>
<g>
</g>
<g>
</g>
<g>
</g>
<g>
</g>
<g>
</g>
<g>
</g>
</svg>
