<?xml version="1.0" encoding="iso-8859-1"?>
<!-- Generator: Adobe Illustrator 19.0.0, SVG Export Plug-In . SVG Version: 6.00 Build 0)  -->
<svg xmlns="http://www.w3.org/2000/svg" xmlns:xlink="http://www.w3.org/1999/xlink" version="1.1" id="Layer_1" x="0px" y="0px" viewBox="0 0 502 502" style="enable-background:new 0 0 502 502;" xml:space="preserve">
<g>
	<g>
		<g>
			<path d="M324.453,178.65c0-57.789-47.015-104.803-104.803-104.803c-57.789,0-104.804,47.015-104.804,104.803     c0,57.789,47.015,104.804,104.804,104.804C277.438,283.454,324.453,236.439,324.453,178.65z M219.65,263.454     c-46.761,0-84.804-38.043-84.804-84.804c0-46.761,38.043-84.803,84.804-84.803c46.761,0,84.803,38.042,84.803,84.803     C304.453,225.411,266.411,263.454,219.65,263.454z" fill="#FFFFFF"/>
			<path d="M130.652,90.081c2.39,0,4.788-0.852,6.701-2.58c22.593-20.412,51.82-31.654,82.297-31.654     c17.038,0,33.525,3.42,49.006,10.165c5.059,2.206,10.955-0.11,13.162-5.173c2.206-5.063-0.11-10.956-5.174-13.162     c-18.015-7.85-37.19-11.83-56.994-11.83c-35.44,0-69.429,13.074-95.705,36.814c-4.098,3.702-4.419,10.026-0.716,14.124     C125.203,88.97,127.923,90.081,130.652,90.081z" fill="#FFFFFF"/>
			<path d="M106.641,108.146c-4.891-2.567-10.936-0.684-13.502,4.206c-10.659,20.301-16.293,43.227-16.293,66.299     c0,5.523,4.478,10,10,10c5.522,0,10-4.477,10-10c0-19.846,4.841-39.557,14-57.002     C113.414,116.758,111.531,110.713,106.641,108.146z" fill="#FFFFFF"/>
			<path d="M458.071,484.929l-74.707-74.707C392.252,397.725,397.5,382.469,397.5,366c0-29.059-16.289-54.383-40.214-67.329     c27.213-51.825,41.013-92.184,41.013-120.021C398.3,80.142,318.158,0,219.65,0S41,80.142,41,178.65     c0,95.435,163.741,310.329,170.711,319.431c1.893,2.471,4.827,3.919,7.939,3.919s6.047-1.449,7.939-3.919     c0.227-0.297,22.133-28.953,49.771-69.301c12.388,8.636,27.427,13.72,43.64,13.72c18.514,0,35.511-6.614,48.758-17.599     l74.17,74.17C445.882,501.024,448.44,502,451,502s5.118-0.976,7.071-2.929C461.976,495.166,461.976,488.834,458.071,484.929z      M219.651,475.334c-14.17-19.11-45.22-61.925-75.951-110.546C89.598,279.187,61,214.821,61,178.65C61,91.17,132.17,20,219.65,20     S378.3,91.17,378.3,178.65c0,24.966-13.405,62.928-39.853,112.881c-5.608-1.314-11.444-2.031-17.447-2.031     c-42.183,0-76.5,34.318-76.5,76.5c0,18.705,6.758,35.854,17.947,49.16C244.373,441.629,228.63,463.23,219.651,475.334z      M321,422.5c-31.154,0-56.5-25.346-56.5-56.5s25.346-56.5,56.5-56.5s56.5,25.346,56.5,56.5S352.154,422.5,321,422.5z" fill="#FFFFFF"/>
		</g>
	</g>
</g>
<g>
</g>
<g>
</g>
<g>
</g>
<g>
</g>
<g>
</g>
<g>
</g>
<g>
</g>
<g>
</g>
<g>
</g>
<g>
</g>
<g>
</g>
<g>
</g>
<g>
</g>
<g>
</g>
<g>
</g>
</svg>
