<?xml version="1.0" encoding="iso-8859-1"?>
<!-- Generator: Adobe Illustrator 16.0.0, SVG Export Plug-In . SVG Version: 6.00 Build 0)  -->
<!DOCTYPE svg PUBLIC "-//W3C//DTD SVG 1.1//EN" "http://www.w3.org/Graphics/SVG/1.1/DTD/svg11.dtd">
<svg xmlns="http://www.w3.org/2000/svg" xmlns:xlink="http://www.w3.org/1999/xlink" version="1.1" id="Capa_1" x="0px" y="0px" viewBox="0 0 611.999 611.999" style="enable-background:new 0 0 611.999 611.999;" xml:space="preserve">
<g>
	<path d="M261.82,560.824c-23.516,0-42.646-19.129-42.646-42.646V262.576c60.876-11.958,106.948-65.711,106.948-130.04   C326.122,59.455,266.667,0,193.586,0C120.505,0,61.049,59.455,61.049,132.536c0,64.328,46.073,118.081,106.949,130.039v255.603   c0,51.73,42.088,93.821,93.821,93.821H550.95v-51.175H261.82L261.82,560.824z M193.586,230.96   c-54.269,0-98.419-44.151-98.419-98.425c0-54.268,44.151-98.42,98.419-98.42c54.268,0,98.419,44.151,98.419,98.42   C292.005,186.81,247.854,230.96,193.586,230.96z M303.879,274.873c-26.367,0-47.742,21.375-47.742,47.742v159.197   c0,26.367,21.375,47.741,47.742,47.741h179.336c26.367,0,47.742-21.375,47.742-47.741V322.616   c0-26.368-21.375-47.743-47.742-47.743h-72.51v35.935h-33.873v-35.935L303.879,274.873L303.879,274.873z M460.624,478.833H326.471   v-16.936h134.152V478.833z M436.78,337.55l33.648,40.111c0,0-11.104,0-24.289,0v52.146H427.42v-52.146c-12.76,0-23.582,0-24.291,0   L436.78,337.55z M383.965,377.661c0,0-11.104,0-24.291,0v52.146h-18.719v-52.146c-12.76,0-23.58,0-24.289,0l33.648-40.111   L383.965,377.661z M186.561,146.754c-7.851,1.367-15.324-3.89-16.691-11.74c-1.367-7.851,3.889-15.324,11.74-16.691   c1.667-0.291,3.373-0.269,4.951,0l81.629,14.215L186.561,146.754z M193.585,72.667c6.787,0,12.289-5.502,12.289-12.289   c0-6.787-5.502-12.289-12.289-12.289s-12.289,5.502-12.289,12.289C181.296,67.165,186.798,72.667,193.585,72.667z M193.585,217.617   c6.787,0,12.289-5.502,12.289-12.289s-5.502-12.289-12.289-12.289s-12.289,5.502-12.289,12.289S186.798,217.617,193.585,217.617z    M120.435,144.466c6.787,0,12.289-5.502,12.289-12.289s-5.502-12.289-12.289-12.289s-12.289,5.502-12.289,12.289   S113.647,144.466,120.435,144.466z" fill="#313757"/>
</g>
<g>
</g>
<g>
</g>
<g>
</g>
<g>
</g>
<g>
</g>
<g>
</g>
<g>
</g>
<g>
</g>
<g>
</g>
<g>
</g>
<g>
</g>
<g>
</g>
<g>
</g>
<g>
</g>
<g>
</g>
</svg>
